<svg width="37" height="37" viewBox="0 0 37 37" fill="none" xmlns="http://www.w3.org/2000/svg">
<g clip-path="url(#clip0_1_683)">
<path d="M35.942 5.05865C35.3979 4.51376 34.5148 4.51232 33.9699 5.05648L17.2411 21.7412L11.2055 15.186C10.6838 14.6201 9.80211 14.5833 9.23482 15.1043C8.66826 15.626 8.63213 16.5084 9.15316 17.075L16.1723 24.6976C16.4296 24.9772 16.7895 25.1391 17.1681 25.147C17.1783 25.147 17.1884 25.147 17.1978 25.147C17.5663 25.147 17.9212 25.0003 18.182 24.7402L35.9391 7.03078C36.4847 6.48661 36.4855 5.60353 35.942 5.05865Z" fill="#42CE93"/>
<path d="M35.6053 17.1053C34.8349 17.1053 34.2105 17.7296 34.2105 18.5C34.2105 27.1632 27.1632 34.2113 18.4993 34.2113C9.83535 34.2113 2.78873 27.1632 2.78873 18.5C2.78873 9.8368 9.8368 2.78873 18.5 2.78873C19.2704 2.78873 19.8947 2.16436 19.8947 1.394C19.8947 0.623652 19.2704 0 18.5 0C8.29898 0 0 8.29898 0 18.5C0 28.701 8.29898 37 18.5 37C28.701 37 37 28.7003 37 18.5C37 17.7296 36.3756 17.1053 35.6053 17.1053Z" fill="#42CE93"/>
</g>
<defs>
<clipPath id="clip0_1_683">
<rect width="37" height="37" fill="white"/>
</clipPath>
</defs>
</svg>
