<svg width="55" height="53" viewBox="0 0 55 53" fill="none" xmlns="http://www.w3.org/2000/svg">
<g clip-path="url(#clip0_1_664)">
<path d="M54.6234 0H0.642944V53H54.6234V0Z" fill="#BDE5EE"/>
<path d="M18.6364 17.6859V0C18.6364 0 17.9722 6.54108 14.2016 10.9913C9.12196 16.9953 1.85423 17.3981 0.642944 17.4365C6.64077 17.5132 12.6386 17.5899 18.6364 17.6667V17.6859Z" fill="#2D4E63"/>
<path d="M18.6364 35.3333V17.6858C18.6364 17.6858 17.9722 24.2269 14.2016 28.6771C9.12196 34.6619 1.85423 35.0647 0.642944 35.1031C6.64077 35.1798 12.6386 35.2565 18.6364 35.3333Z" fill="#2D4E63"/>
<path d="M18.6364 52.9999V35.3333C18.6364 35.3333 17.9722 41.8743 14.2016 46.3246C9.12196 52.3285 1.85423 52.7314 0.642944 52.7697C6.64077 52.8465 12.6386 52.9232 18.6364 52.9999Z" fill="#2D4E63"/>
<path d="M36.6299 17.6667V0C36.6299 0 35.9657 6.54108 32.195 10.9913C27.1154 16.9953 19.8477 17.3789 18.6364 17.4365C24.6343 17.5132 30.6321 17.5899 36.6299 17.6667Z" fill="#2D4E63"/>
<path d="M36.6299 35.3334V17.6667C36.6299 17.6667 35.9657 24.2078 32.195 28.6581C27.1154 34.662 19.8477 35.0457 18.6364 35.1032C24.6343 35.18 30.6321 35.2567 36.6299 35.3334Z" fill="#54A985"/>
<path d="M36.6299 52.9999V35.3333C36.6299 35.3333 35.9657 41.8743 32.195 46.3246C27.1154 52.3285 19.8477 52.7122 18.6364 52.7697C24.6343 52.8465 30.6321 52.9232 36.6299 52.9999Z" fill="#2D4E63"/>
<path d="M54.6429 17.6859V0C54.6429 0 53.9787 6.54108 50.2081 10.9913C45.1285 16.9953 37.8607 17.3789 36.6495 17.4365C42.6473 17.5132 48.6451 17.5899 54.6429 17.6667V17.6859Z" fill="#2D4E63"/>
<path d="M54.6429 35.3333V17.6858C54.6429 17.6858 53.9787 24.2269 50.2081 28.6771C45.1285 34.6811 37.8607 35.0647 36.6495 35.1223C42.6473 35.199 48.6451 35.2757 54.6429 35.3525V35.3333Z" fill="#2D4E63"/>
<path d="M54.6429 52.9999V35.3333C54.6429 35.3333 53.9787 41.8743 50.2081 46.3246C45.1285 52.3285 37.8607 52.7122 36.6495 52.7697C42.6473 52.8465 48.6451 52.9232 54.6429 52.9999Z" fill="#2D4E63"/>
</g>
<defs>
<clipPath id="clip0_1_664">
<rect width="54" height="53" fill="white" transform="translate(0.642944)"/>
</clipPath>
</defs>
</svg>
