<svg width="56" height="55" viewBox="0 0 56 55" fill="none" xmlns="http://www.w3.org/2000/svg">
<g clip-path="url(#clip0_1_675)">
<path d="M55.0415 0H0.0415039V55H55.0415V0Z" fill="#BDE5EE"/>
<path d="M53.4146 22.8806C43.3102 22.8806 35.1161 14.6269 35.1161 4.43286C35.1161 14.6269 26.9221 22.8806 16.8176 22.8806C26.9221 22.8806 35.1161 31.1344 35.1161 41.3284C35.1161 31.1344 43.3102 22.8806 53.4146 22.8806Z" fill="#54A985"/>
<path d="M18.34 48.5374C18.34 42.4031 23.355 37.418 29.5341 37.418C23.355 37.418 18.34 32.4478 18.34 26.2986C18.34 32.4329 13.3251 37.418 7.146 37.418C13.3251 37.418 18.34 42.3881 18.34 48.5374Z" fill="#2D4E63"/>
</g>
<defs>
<clipPath id="clip0_1_675">
<rect width="55" height="55" fill="white" transform="translate(0.0415039)"/>
</clipPath>
</defs>
</svg>
