<svg width="54" height="53" viewBox="0 0 54 53" fill="none" xmlns="http://www.w3.org/2000/svg">
<g clip-path="url(#clip0_1_657)">
<path d="M53.6771 53H0.677124V26.5072V0H53.6771V53Z" fill="#BDE5EE"/>
<path d="M15.8216 49.2927C22.1127 49.2762 27.1992 44.163 27.1828 37.8719C27.1663 31.5808 22.053 26.4942 15.7619 26.5107C9.47087 26.5272 4.38429 31.6405 4.40076 37.9315C4.41723 44.2226 9.53051 49.3092 15.8216 49.2927Z" fill="#2D4E63"/>
<path d="M38.5806 49.2972C44.8717 49.2818 49.9592 44.1694 49.9438 37.8783C49.9284 31.5872 44.816 26.4998 38.525 26.5151C32.2339 26.5305 27.1464 31.6429 27.1618 37.934C27.1771 44.2251 32.2895 49.3125 38.5806 49.2972Z" fill="#2D4E63"/>
<path d="M15.7933 26.4928C22.0844 26.4928 27.1843 21.3928 27.1843 15.1017C27.1843 8.81064 22.0844 3.71069 15.7933 3.71069C9.50217 3.71069 4.40222 8.81064 4.40222 15.1017C4.40222 21.3928 9.50217 26.4928 15.7933 26.4928Z" fill="#2D4E63"/>
<path d="M38.561 26.4928C44.8521 26.4928 49.952 21.3928 49.952 15.1017C49.952 8.81064 44.8521 3.71069 38.561 3.71069C32.2699 3.71069 27.17 8.81064 27.17 15.1017C27.17 21.3928 32.2699 26.4928 38.561 26.4928Z" fill="#2D4E63"/>
</g>
<defs>
<clipPath id="clip0_1_657">
<rect width="53" height="53" fill="white" transform="translate(0.677124)"/>
</clipPath>
</defs>
</svg>
