<svg width="128" height="38" viewBox="0 0 128 38" fill="none" xmlns="http://www.w3.org/2000/svg">
<g clip-path="url(#clip0_1_519)">
<path d="M31.4892 0.5H36.1118C36.5941 0.5 36.9894 0.889961 36.9894 1.36584V29.8726C36.9894 30.3485 36.6008 30.7385 36.1185 30.7451C36.1185 30.7451 36.1185 30.7451 36.1118 30.7451H31.4892C31.0001 30.7451 30.6116 30.3551 30.6116 29.8726V1.36584C30.6116 0.889961 31.0068 0.5 31.4892 0.5Z" fill="white"/>
<path d="M42.8178 0.5H47.7753C48.2577 0.5 48.653 0.889961 48.653 1.36584V5.22579C48.653 5.70168 48.2577 6.09164 47.7753 6.09164H42.8178C42.3354 6.09164 41.9402 5.70168 41.9402 5.22579V1.36584C41.9402 0.889961 42.3354 0.5 42.8178 0.5ZM42.9853 8.53716H47.6079C48.0902 8.53716 48.4855 8.92712 48.4855 9.403C48.4855 9.403 48.4855 9.403 48.4855 9.40961V29.8991C48.4855 30.375 48.0969 30.7649 47.6146 30.7715C47.6146 30.7715 47.6146 30.7715 47.6079 30.7715H42.9853C42.5029 30.7715 42.1077 30.3816 42.1077 29.9057C42.1077 29.9057 42.1077 29.9057 42.1077 29.8991V9.40961C42.1077 8.93373 42.4962 8.54377 42.9786 8.53716C42.9786 8.53716 42.9786 8.53716 42.9853 8.53716Z" fill="white"/>
<path d="M54.4747 8.53722H59.0973C59.5863 8.53722 59.9749 8.92718 59.9749 9.40968V9.48238C59.9682 9.96487 60.3568 10.3614 60.8391 10.3747C61.0669 10.3747 61.288 10.2953 61.4555 10.1433C62.9762 8.81482 64.9592 8.1076 66.9892 8.16048C72.2348 8.16048 77.2325 12.2253 77.2325 19.6412V19.6676C77.2325 27.0835 72.3218 31.1483 66.9892 31.1483C64.9659 31.1946 62.9963 30.527 61.4287 29.2646C61.0535 28.954 60.4975 29.0002 60.1826 29.3704C60.0486 29.529 59.9749 29.7207 59.9749 29.9256V36.4888C59.9749 36.9713 59.5863 37.3547 59.0973 37.3613H54.4747C53.9924 37.3613 53.6038 36.9779 53.5971 36.502V9.40307C53.5971 8.92718 53.9924 8.54383 54.4747 8.53722ZM70.8547 19.6676V19.6015C70.8547 15.9134 68.329 13.4679 65.3478 13.4679C62.3666 13.4679 59.8945 15.9134 59.8945 19.6015V19.6676C59.8945 23.3557 62.3666 25.8012 65.3478 25.8012C68.329 25.8012 70.8547 23.4086 70.8547 19.6676Z" fill="white"/>
<path d="M95.2806 0.5H99.9032C100.386 0.5 100.781 0.889961 100.781 1.36584V29.8726C100.781 30.3551 100.392 30.7385 99.9032 30.7451H95.2806C94.7916 30.7451 94.3963 30.3551 94.3963 29.8726V1.36584C94.403 0.883351 94.7983 0.5 95.2806 0.5Z" fill="white"/>
<path d="M121.428 8.53711H126.118C126.6 8.53711 126.995 8.92046 127.002 9.39634C127.002 9.5021 126.982 9.60785 126.942 9.7136L118.769 31.2804C117.047 35.8013 115.198 37.5 111.399 37.5C109.691 37.5264 107.996 37.1364 106.475 36.3697C106.053 36.1582 105.872 35.6493 106.073 35.2263L107.453 32.2256C107.654 31.7893 108.164 31.5911 108.612 31.7761C109.229 32.0669 109.892 32.2322 110.575 32.2586C111.399 32.3511 112.197 31.9414 112.585 31.2143C112.732 30.983 112.766 30.6922 112.659 30.4344L104.452 9.75326C104.278 9.30381 104.506 8.80149 104.961 8.62964C105.062 8.58999 105.169 8.57016 105.276 8.57016H110.113C110.495 8.57016 110.83 8.8081 110.95 9.16501L115.017 21.1745C115.164 21.6305 115.653 21.8817 116.116 21.7429C116.39 21.657 116.605 21.4455 116.692 21.1745L120.591 9.13857C120.711 8.78166 121.046 8.53711 121.428 8.53711Z" fill="white"/>
<path fill-rule="evenodd" clip-rule="evenodd" d="M87.027 16.799H82.7394C82.3441 16.799 81.9824 17.0238 81.8216 17.3807C81.3861 18.3787 81.0244 19.4032 80.7363 20.4475C80.7162 20.5268 80.7028 20.6127 80.7028 20.6987V29.5818C80.7028 30.137 81.1584 30.5865 81.7211 30.5865C81.7211 30.5865 81.7278 30.5865 81.7345 30.5865H85.0842C85.6469 30.5931 86.1092 30.1502 86.1159 29.595C86.1159 29.595 86.1159 29.5884 86.1159 29.5818V20.9366C86.1159 20.4938 86.4777 20.1368 86.9265 20.1368C87.3754 20.1236 87.7505 20.4805 87.7639 20.9234C87.7639 20.9234 87.7639 20.93 87.7639 20.9366V29.9982C87.7639 30.3221 88.0185 30.5799 88.3468 30.5865C88.3468 30.5865 88.3468 30.5865 88.3535 30.5865C88.6751 30.5865 88.9363 30.3353 88.943 30.0181C88.943 30.0181 88.943 30.0114 88.943 30.0048V20.4277C88.6884 19.423 88.3669 18.4316 87.9917 17.46C87.851 17.0568 87.4625 16.7924 87.027 16.799ZM84.4812 15.0409V7.81012C84.4812 7.51269 84.3473 7.23509 84.1195 7.04342C83.7979 6.76582 83.6371 6.35603 83.6706 5.93963C83.6572 5.40426 84.0123 4.92838 84.5348 4.78297C84.7425 4.71026 84.9636 4.71026 85.1713 4.78297C85.6938 4.92838 86.0489 5.40426 86.0355 5.93963C86.069 6.35603 85.9082 6.76582 85.5866 7.04342C85.3589 7.23509 85.2249 7.51269 85.2249 7.81012V15.0409C85.2249 15.5895 85.6804 16.0323 86.2365 16.039H87.094C87.5429 16.039 87.9381 15.7481 88.0654 15.3251L89.8809 9.3237C89.9546 9.07253 89.9278 8.79494 89.8005 8.5636L85.7541 1.16096C85.4928 0.678465 84.8765 0.493399 84.3875 0.751169C84.2133 0.843702 84.0726 0.982502 83.9721 1.16096L79.9525 8.52395C79.8252 8.75528 79.7984 9.03288 79.8721 9.28404L81.6876 15.2855C81.8149 15.7085 82.2102 15.9993 82.659 15.9993H83.483C84.019 15.9927 84.4611 15.5697 84.4812 15.0409Z" fill="white"/>
<path d="M26.1766 27.0173C26.7058 26.5018 26.7125 25.669 26.19 25.1469C26.19 25.1469 26.1833 25.1403 26.1766 25.1336L23.8988 22.8401C23.4097 22.3643 22.6393 22.3312 22.1101 22.7608C20.8238 23.9043 19.2628 24.7172 17.5813 25.1204H17.5277C11.9806 26.3035 6.80871 21.895 6.80871 16.2835V16.1447C6.76181 11.1876 10.3326 7.10952 15.2901 7.10952C15.6184 7.10952 15.9467 7.12935 16.2682 7.1624C16.3754 7.1624 16.4759 7.1624 16.5831 7.20206L17.2061 7.3012L17.5545 7.38712C19.1222 7.7903 20.5759 8.53057 21.8153 9.55504C22.378 10.0045 23.1954 9.93178 23.671 9.39641L26.0694 6.6733C26.5585 6.12471 26.4982 5.29191 25.9421 4.80942C23.5906 2.80013 20.6563 1.59059 17.5545 1.35926H17.5143L17.1726 1.32621L16.5764 1.28655H15.3303C6.29956 1.24689 0.00214709 8.00181 0.00214709 16.2439V16.3628C-0.13184 24.4463 6.40005 31.1086 14.5934 31.2408C14.7542 31.2408 14.9149 31.2408 15.0757 31.2408H16.362L16.9784 31.2012L17.3267 31.1615H17.5545C20.8238 30.798 23.872 29.3373 26.1766 27.0173Z" fill="white"/>
</g>
<defs>
<clipPath id="clip0_1_519">
<rect width="127.002" height="37.0013" fill="white" transform="translate(0 0.5)"/>
</clipPath>
</defs>
</svg>
